<?xml version="1.0" standalone="no"?>
<!DOCTYPE svg PUBLIC "-//W3C//DTD SVG 20010904//EN"
 "http://www.w3.org/TR/2001/REC-SVG-20010904/DTD/svg10.dtd">
<svg version="1.0" xmlns="http://www.w3.org/2000/svg"
 width="263.000000pt" height="263.000000pt" viewBox="0 0 263.000000 263.000000"
 preserveAspectRatio="xMidYMid meet">
<metadata>
Created by potrace 1.14, written by Peter Selinger 2001-2017
</metadata>
<g transform="translate(0.000000,263.000000) scale(0.100000,-0.100000)"
fill="#000000" stroke="none">
<path d="M1110 2575 c-201 -33 -437 -136 -586 -256 -127 -102 -277 -286 -348
-427 -30 -59 -85 -204 -92 -241 -3 -12 -12 -53 -21 -90 -21 -90 -25 -339 -6
-451 43 -258 168 -497 357 -685 245 -243 526 -363 867 -370 280 -6 506 59 738
213 100 66 257 218 325 314 98 138 175 318 213 493 17 83 25 350 11 430 -38
225 -126 427 -263 605 -51 67 -209 211 -287 263 -144 95 -313 164 -483 198
-84 16 -335 18 -425 4z"/>
</g>
</svg>
